<?xml version="1.0" encoding="utf-8"?>
<!-- Generator: Adobe Illustrator 21.0.2, SVG Export Plug-In . SVG Version: 6.00 Build 0)  -->
<svg version="1.1" id="Layer_1" xmlns="http://www.w3.org/2000/svg" xmlns:xlink="http://www.w3.org/1999/xlink" x="0px" y="0px"
	 viewBox="0 0 100 100" style="enable-background:new 0 0 100 100;" xml:space="preserve">
<path d="M50,5C25.2,5,5,25.2,5,50c0,9.9,3.1,19.2,9.1,27.1c0.2,2,0.5,8.7-5.9,13c0,0,0,0,0,0c-0.1,0.1-0.2,0.2-0.3,0.2
	c0,0-0.1,0.1-0.1,0.1c0,0-0.1,0.1-0.1,0.1c0,0.1-0.1,0.1-0.1,0.2c0,0.1-0.1,0.1-0.1,0.2c0,0.1,0,0.1-0.1,0.2c0,0.1,0,0.1-0.1,0.2
	c0,0.1,0,0.2,0,0.4c0,0,0,0,0,0c0,0,0,0.1,0,0.1c0,0.1,0,0.2,0,0.3c0,0.1,0,0.1,0.1,0.2c0,0.1,0,0.1,0.1,0.2c0,0.1,0.1,0.2,0.1,0.3
	c0,0,0,0,0,0.1c0,0,0,0,0,0c0.1,0.1,0.2,0.2,0.2,0.3c0,0,0.1,0.1,0.1,0.1c0,0,0.1,0.1,0.2,0.1c0,0,0.1,0.1,0.2,0.1
	c0.1,0,0.1,0.1,0.2,0.1c0,0,0.1,0,0.1,0c0.1,0,0.1,0,0.2,0.1c0.1,0,0.2,0,0.4,0c0,0,0,0,0,0c13.2,0,19.8-1.9,22-2.7
	C37.1,93.6,43.4,95,50,95c24.8,0,45-20.2,45-45C95,25.2,74.8,5,50,5z M50,91.2c-6.3,0-12.3-1.4-17.9-4.1c-0.1,0-0.1,0-0.2-0.1
	c0,0,0,0,0,0c-0.1,0-0.2-0.1-0.3-0.1c0,0,0,0,0,0c-0.1,0-0.2,0-0.3,0c0,0-0.1,0-0.1,0c-0.1,0-0.2,0-0.3,0c0,0-0.1,0-0.1,0
	c-0.1,0-0.1,0-0.2,0.1c0,0-0.1,0-0.1,0c0,0-4.5,2.1-16.1,2.6c4.1-5.1,3.9-11,3.6-13c-0.1-0.6-0.3-1.3-0.7-1.8
	C11.7,67.6,8.8,59,8.8,50C8.8,27.3,27.3,8.8,50,8.8c22.7,0,41.2,18.5,41.2,41.2S72.7,91.2,50,91.2z M71.4,38c0,1.1-0.9,1.9-1.9,1.9
	H31.2c-1.1,0-1.9-0.9-1.9-1.9c0-1.1,0.9-1.9,1.9-1.9h38.3C70.6,36.1,71.4,37,71.4,38z M71.4,49.5c0,1.1-0.9,1.9-1.9,1.9H31.2
	c-1.1,0-1.9-0.9-1.9-1.9c0-1.1,0.9-1.9,1.9-1.9h38.3C70.6,47.6,71.4,48.5,71.4,49.5z M71.4,61c0,1.1-0.9,1.9-1.9,1.9H31.2
	c-1.1,0-1.9-0.9-1.9-1.9c0-1.1,0.9-1.9,1.9-1.9h38.3C70.6,59.1,71.4,60,71.4,61z"/>
</svg>
