<?xml version="1.0" encoding="utf-8"?>
<!-- Generator: Adobe Illustrator 23.0.1, SVG Export Plug-In . SVG Version: 6.00 Build 0)  -->
<svg version="1.1" id="Layer_1" xmlns="http://www.w3.org/2000/svg" xmlns:xlink="http://www.w3.org/1999/xlink" x="0px" y="0px"
	 viewBox="0 0 100 100" style="enable-background:new 0 0 100 100;" xml:space="preserve">
<path d="M75,5H25c-4.41,0-8,3.59-8,8v64c0,4.41,3.59,8,8,8h32v2c0,4.41,3.59,8,8,8s8-3.59,8-8v-2h2c4.41,0,8-3.59,8-8V13
	C83,8.59,79.41,5,75,5z M43,9h14v6H43V9z M69,87c0,2.21-1.79,4-4,4s-4-1.79-4-4v-8h8V87z M69,75h-8V53h8V75z M69,49h-8v-1.59l4-9.33
	l4,9.33V49z M79,77c0,2.21-1.79,4-4,4h-2V47c0-0.27-0.05-0.54-0.16-0.79l-6-14C66.52,31.48,65.8,31,65,31s-1.52,0.48-1.84,1.21
	l-6,14C57.05,46.46,57,46.73,57,47v34H25c-2.21,0-4-1.79-4-4V13c0-2.21,1.79-4,4-4h14v8c0,1.1,0.9,2,2,2h18c1.1,0,2-0.9,2-2V9h14
	c2.21,0,4,1.79,4,4V77z M35,27c0,1.1-0.9,2-2,2h-4c-1.1,0-2-0.9-2-2c0-1.1,0.9-2,2-2h4C34.1,25,35,25.9,35,27z M73,27
	c0,1.1-0.9,2-2,2H43c-1.1,0-2-0.9-2-2c0-1.1,0.9-2,2-2h28C72.1,25,73,25.9,73,27z M35,37c0,1.1-0.9,2-2,2h-4c-1.1,0-2-0.9-2-2
	c0-1.1,0.9-2,2-2h4C34.1,35,35,35.9,35,37z M55,37c0,1.1-0.9,2-2,2H43c-1.1,0-2-0.9-2-2c0-1.1,0.9-2,2-2h10C54.1,35,55,35.9,55,37z
	 M35,47c0,1.1-0.9,2-2,2h-4c-1.1,0-2-0.9-2-2c0-1.1,0.9-2,2-2h4C34.1,45,35,45.9,35,47z M51,47c0,1.1-0.9,2-2,2h-6c-1.1,0-2-0.9-2-2
	c0-1.1,0.9-2,2-2h6C50.1,45,51,45.9,51,47z M35,57c0,1.1-0.9,2-2,2h-4c-1.1,0-2-0.9-2-2c0-1.1,0.9-2,2-2h4C34.1,55,35,55.9,35,57z
	 M51,57c0,1.1-0.9,2-2,2h-6c-1.1,0-2-0.9-2-2c0-1.1,0.9-2,2-2h6C50.1,55,51,55.9,51,57z"/>
</svg>
