<?xml version="1.0" standalone="no"?><!DOCTYPE svg PUBLIC "-//W3C//DTD SVG 1.1//EN" "http://www.w3.org/Graphics/SVG/1.1/DTD/svg11.dtd"><svg t="1558403053713" class="icon" style="" viewBox="0 0 1024 1024" version="1.1" xmlns="http://www.w3.org/2000/svg" p-id="17189" xmlns:xlink="http://www.w3.org/1999/xlink" width="32" height="32"><defs><style type="text/css"></style></defs><path d="M722.56 1024h-198.4v-90.88a105.6 105.6 0 1 0-211.84 0V1024h-198.4A113.92 113.92 0 0 1 0 910.08v-198.4h90.88a105.6 105.6 0 0 0 0-211.84H0v-198.4a113.92 113.92 0 0 1 113.92-113.92h167.04v-49.92a137.6 137.6 0 1 1 275.2 0v49.92h167.04a114.56 114.56 0 0 1 113.92 113.92v166.4h49.92a137.6 137.6 0 1 1 0 275.2h-49.92v167.04A114.56 114.56 0 0 1 722.56 1024z" p-id="17190"></path></svg>