<?xml version="1.0" standalone="no"?><!DOCTYPE svg PUBLIC "-//W3C//DTD SVG 1.1//EN" "http://www.w3.org/Graphics/SVG/1.1/DTD/svg11.dtd"><svg t="1573118943027" class="icon" viewBox="0 0 1024 1024" version="1.1" xmlns="http://www.w3.org/2000/svg" p-id="4984" xmlns:xlink="http://www.w3.org/1999/xlink" width="200" height="200"><defs><style type="text/css"></style></defs><path d="M1001.813333 310.613333h-34.133333c-8.533333 0-17.066667-6.826667-17.066667-17.066666-8.533333-124.586667-112.64-221.866667-238.933333-221.866667H310.613333c-126.293333 0-230.4 98.986667-238.933333 221.866667 0 8.533333-8.533333 17.066667-17.066667 17.066666h-34.133333c-10.24 0-17.066667-8.533333-17.066667-17.066666 8.533333-162.133333 143.36-290.133333 307.2-290.133334h401.066667c163.84 0 296.96 128 307.2 290.133334 0 8.533333-6.826667 17.066667-17.066667 17.066666zM711.68 1018.88H310.613333c-163.84 0-296.96-128-307.2-290.133333 0-10.24 6.826667-17.066667 17.066667-17.066667h34.133333c8.533333 0 17.066667 6.826667 17.066667 17.066667 8.533333 124.586667 112.64 221.866667 238.933333 221.866666h401.066667c126.293333 0 230.4-98.986667 238.933333-221.866666 0-8.533333 8.533333-17.066667 17.066667-17.066667h34.133333c10.24 0 17.066667 8.533333 17.066667 17.066667-8.533333 162.133333-143.36 290.133333-307.2 290.133333z" p-id="4985" fill="#2c2c2c"></path><path d="M984.746667 653.653333c0 10.24-8.533333 18.773333-18.773334 17.066667-69.973333-8.533333-124.586667-69.973333-124.586666-143.36v-34.133333c0-73.386667 54.613333-133.12 124.586666-143.36 10.24-1.706667 18.773333 6.826667 18.773334 17.066666v34.133334c0 8.533333-5.12 15.36-13.653334 17.066666-35.84 6.826667-61.44 37.546667-61.44 75.093334v34.133333c0 37.546667 27.306667 68.266667 61.44 75.093333 8.533333 1.706667 13.653333 8.533333 13.653334 17.066667v34.133333zM37.546667 653.653333v-34.133333c0-8.533333 5.12-15.36 13.653333-17.066667 35.84-6.826667 61.44-37.546667 61.44-75.093333v-34.133333c0-37.546667-27.306667-68.266667-61.44-75.093334-8.533333-1.706667-13.653333-8.533333-13.653333-17.066666v-34.133334c0-10.24 8.533333-18.773333 18.773333-17.066666 69.973333 8.533333 124.586667 69.973333 124.586667 143.36v34.133333c0 73.386667-54.613333 133.12-124.586667 143.36-8.533333 1.706667-18.773333-6.826667-18.773333-17.066667z" p-id="4986" fill="#2c2c2c"></path><path d="M459.093333 646.826667h-107.52c-10.24 0-17.066667-6.826667-17.066666-17.066667v-17.066667c0-10.24 6.826667-17.066667 17.066666-17.066666h107.52v-46.08h-107.52c-10.24 0-17.066667-6.826667-17.066666-17.066667v-17.066667c0-10.24 6.826667-17.066667 17.066666-17.066666h83.626667l-109.226667-216.746667c-5.12-11.946667 1.706667-23.893333 15.36-23.893333h68.266667c6.826667 0 13.653333 3.413333 15.36 10.24l42.666667 104.106666c13.653333 35.84 27.306667 71.68 42.666666 105.813334h3.413334c13.653333-35.84 29.013333-71.68 42.666666-105.813334l42.666667-104.106666c3.413333-6.826667 8.533333-10.24 15.36-10.24h64.853333c11.946667 0 20.48 13.653333 15.36 25.6l-109.226666 216.746666h85.333333c10.24 0 17.066667 6.826667 17.066667 17.066667v17.066667c0 10.24-6.826667 17.066667-17.066667 17.066666H563.2V597.333333h109.226667c10.24 0 17.066667 6.826667 17.066666 17.066667v17.066667c0 10.24-6.826667 17.066667-17.066666 17.066666H563.2v104.106667c0 10.24-6.826667 17.066667-17.066667 17.066667h-69.973333c-10.24 0-17.066667-6.826667-17.066667-17.066667v-105.813333z" p-id="4987" fill="#2c2c2c"></path></svg>