<?xml version="1.0" encoding="utf-8"?>
<!-- Generator: Adobe Illustrator 23.0.1, SVG Export Plug-In . SVG Version: 6.00 Build 0)  -->
<svg version="1.1" id="Layer_1" xmlns="http://www.w3.org/2000/svg" xmlns:xlink="http://www.w3.org/1999/xlink" x="0px" y="0px"
	 viewBox="0 0 100 100" style="enable-background:new 0 0 100 100;" xml:space="preserve">
<path d="M93.57,43.52C92.45,41.94,90.62,41,88.68,41h-3.37V27c0-1.1-0.9-2-2-2h-2v-6c0-1.1-0.9-2-2-2H40.32L33.8,9.67
	C33.43,9.24,32.88,9,32.31,9h-21c-3.31,0-6,2.69-6,6v70c0,3.31,2.69,6,6,6h64.16c2.55,0,4.82-1.62,5.66-4.03l13.22-38
	C94.99,47.14,94.7,45.1,93.57,43.52z M81.31,29v12h-6v-4c0-1.1-0.9-2-2-2s-2,0.9-2,2v4h-6v-4c0-1.1-0.9-2-2-2c-1.1,0-2,0.9-2,2v4h-6
	v-4c0-1.1-0.9-2-2-2s-2,0.9-2,2v4h-6v-4c0-1.1-0.9-2-2-2s-2,0.9-2,2v4h-6v-4c0-1.1-0.9-2-2-2s-2,0.9-2,2v4h-6.16
	c-2.55,0-4.83,1.62-5.66,4.03l-2.18,6.26V38h7c1.1,0,2-0.9,2-2v-7H81.31z M18.14,34l4.17-4.17V34H18.14z M77.31,21v4h-55
	c-0.36,0-0.7,0.1-1,0.28V21H77.31z M9.31,15c0-1.1,0.9-2,2-2h20.1l3.56,4H19.31c-1.1,0-2,0.9-2,2v10.17l-3.41,3.42
	c-0.38,0.37-0.59,0.88-0.59,1.41v28.79l-4,11.5V15z M90.57,47.66l-13.21,38c-0.28,0.8-1.04,1.34-1.89,1.34H11.94
	c-0.66,0-1.25-0.31-1.63-0.84c-0.38-0.54-0.48-1.2-0.26-1.82l13.22-38c0.27-0.8,1.03-1.34,1.88-1.34h63.53
	c0.66,0,1.25,0.31,1.63,0.84C90.69,46.38,90.79,47.04,90.57,47.66z"/>
</svg>
